<?xml version="1.0" standalone="no"?><!DOCTYPE svg PUBLIC "-//W3C//DTD SVG 1.1//EN" "http://www.w3.org/Graphics/SVG/1.1/DTD/svg11.dtd"><svg t="1710394450819" class="icon" viewBox="0 0 1024 1024" version="1.1" xmlns="http://www.w3.org/2000/svg" p-id="7401" data-spm-anchor-id="a313x.search_index.0.i83.11e63a81XK1Fsu" xmlns:xlink="http://www.w3.org/1999/xlink" width="200" height="200"><path d="M522.926519 478.6176l307.141486-105.735314 20.011885 58.075428-307.170743 105.735315z" fill="#e0e3e5" p-id="7402" data-spm-anchor-id="a313x.search_index.0.i86.11e63a81XK1Fsu" class=""></path><path d="M889.518519 384.380343l-45.2608 232.594286-60.328229-11.702858 45.231543-232.623542z" fill="#e0e3e5" p-id="7403" data-spm-anchor-id="a313x.search_index.0.i87.11e63a81XK1Fsu" class=""></path><path d="M101.360347 1013.174857h52.458058v-52.106971l-27.384686-23.727543-25.073372 23.698286z" fill="#FFFFFF" p-id="7404"></path><path d="M223.860005 960.512H276.288805v-52.106971l-26.243658-23.727543-26.2144 23.698285z" fill="#e0e3e5" p-id="7405" data-spm-anchor-id="a313x.search_index.0.i85.11e63a81XK1Fsu" class=""></path><path d="M683.928576 125.805714L603.383662 161.060571l-30.193372 208.398629H518.537947c-75.922286 34.143086-153.775543 73.757257-219.077485 96.928914l-67.291429 247.222857 341.021257-84.436114a186.368 186.368 0 0 0 61.205943-17.437257 188.591543 188.591543 0 0 0 52.458057-37.4784c32.329143-32.826514 52.458057-77.385143 52.458057-126.420114V276.860343C716.579547 210.300343 683.928576 125.805714 683.928576 125.805714z" fill="#8cd4fa" p-id="7406" data-spm-anchor-id="a313x.search_index.0.i75.11e63a81XK1Fsu" class=""></path><path d="M223.860005 793.278171v115.126858H276.288805v-106.203429c83.295086 0 151.464229-64.277943 156.993828-145.6128l-210.066286-58.748343c0 71.797029 0.585143 142.394514 0.585143 195.437714z" fill="#e0e3e5" p-id="7407" data-spm-anchor-id="a313x.search_index.0.i84.11e63a81XK1Fsu" class=""></path><path d="M657.041262 620.690286c6.290286-3.6864 12.405029-7.548343 18.432-11.615086 85.840457-58.250971 80.457143-170.861714 80.457143-201.698743 0-30.837029-13.458286-80.6912-22.879086-111.177143a469.138286 469.138286 0 0 0-9.654857-26.887314l-546.523429 330.020571c5.266286 6.261029 9.333029 10.883657 12.0832 13.897143 10.883657 11.790629 45.904457 45.2608 105.033143 100.381257 219.136-48.566857 340.1728-79.579429 363.081143-92.920685z" fill="#8cd4fa" p-id="7408" data-spm-anchor-id="a313x.search_index.0.i74.11e63a81XK1Fsu" class=""></path><path d="M739.312347 108.982857l-54.213485 52.662857 54.213485 55.881143a55.296 55.296 0 0 0 47.981715-27.882057l39.438628-14.774857V108.982857h-87.420343z" fill="#e0e3e5" p-id="7409" data-spm-anchor-id="a313x.search_index.0.i88.11e63a81XK1Fsu" class=""></path><path d="M669.358519 149.006629v232.477257c38.473143 0 69.924571-36.278857 69.924571-80.603429v-151.844571h-69.924571z" fill="#f5f6f7" p-id="7410" data-spm-anchor-id="a313x.search_index.0.i94.11e63a81XK1Fsu" class=""></path><path d="M687.000576 108.982857l24.839314 29.813029-24.839314 27.267657h-103.862857c-71.621486 0-129.872457-64.014629-129.872457-142.657829h51.960685c0 47.191771 34.933029 85.577143 77.911772 85.577143h103.862857z" fill="#e0e3e5" p-id="7411" data-spm-anchor-id="a313x.search_index.0.i91.11e63a81XK1Fsu" class=""></path><path d="M153.818405 527.477029v-34.728229l-25.044115-27.209143-27.413943 27.209143v47.981714c0 28.613486 23.610514 52.077714 52.458058 52.077715v211.968H101.360347v156.291657h52.458058v-79.872c18.432 0 36.074057-3.159771 52.458057-8.923429 57.929143-20.333714 100.234971-73.3184 104.565028-136.689371 0.234057-3.510857 0.380343-7.109486 0.380343-10.708115v-232.126171l-157.403428 34.728229z" fill="#f5f6f7" p-id="7412" data-spm-anchor-id="a313x.search_index.0.i93.11e63a81XK1Fsu" class=""></path><path d="M153.818405 449.418971c-28.847543 0-52.458057 23.434971-52.458058 52.077715h52.458058v-52.077715z" fill="#e0e3e5" p-id="7413" data-spm-anchor-id="a313x.search_index.0.i90.11e63a81XK1Fsu" class=""></path><path d="M669.358519 108.982857h69.953828v60.884114h-69.953828z" fill="#8cd4fa" p-id="7414" data-spm-anchor-id="a313x.search_index.0.i76.11e63a81XK1Fsu" class=""></path><path d="M477.431662 605.622857l192.160914-153.892571L255.691776 84.465371c-113.576229-8.923429-117.262629 129.492114-90.5216 210.358858 26.711771 80.837486 193.389714 273.963886 312.261486 310.740114z" fill="#8cd4fa" p-id="7415" data-spm-anchor-id="a313x.search_index.0.i73.11e63a81XK1Fsu" class=""></path><path d="M131.670747 358.897371c43.885714 79.901257 119.778743 159.246629 223.787886 226.391772 0 0 76.214857 25.365943 90.638629 13.165714 13.165714-11.0592-35.371886-59.743086-35.371886-59.743086-214.659657-138.591086-281.921829-339.675429-149.884343-450.998857L175.995319 15.330743C151.243776 36.220343 127.252919 71.8848 113.61909 97.338514c-40.696686 75.951543-32.709486 169.106286 18.080915 261.558857z" fill="#e0e3e5" p-id="7416" data-spm-anchor-id="a313x.search_index.0.i89.11e63a81XK1Fsu" class=""></path><path d="M347.29589 596.143543c73.084343 58.806857 179.521829 48.596114 237.714286-22.762057a162.786743 162.786743 0 0 0 33.967543-73.055086 168.842971 168.842971 0 0 0-60.913372-162.6112l-210.768457 258.428343z" fill="#f5f6f7" p-id="7417" data-spm-anchor-id="a313x.search_index.0.i82.11e63a81XK1Fsu" class=""></path><path d="M646.742747 538.185143l217.848686-26.741029 7.489829 60.971886-217.848686 26.741029z" fill="#8cd4fa" p-id="7418" data-spm-anchor-id="a313x.search_index.0.i78.11e63a81XK1Fsu" class=""></path><path d="M921.584347 534.381714l-88.795428 219.721143-56.992914-22.996114 88.795428-219.721143z" fill="#8cd4fa" p-id="7419" data-spm-anchor-id="a313x.search_index.0.i77.11e63a81XK1Fsu" class=""></path></svg>