<svg data-v-0dd9719b="" version="1.0" xmlns="http://www.w3.org/2000/svg" xmlns:xlink="http://www.w3.org/1999/xlink" width="100%" height="100%" viewBox="0 0 340.000000 250.000000" preserveAspectRatio="xMidYMid meet" color-interpolation-filters="sRGB" style="margin: auto;"> <rect data-v-0dd9719b="" x="0" y="0" width="100%" height="100%" fill="#ffffff" fill-opacity="0" class="background"></rect>  <g data-v-0dd9719b="" class="iconmbgsvg" transform="translate(113.75,57.693572998046875)"><g fill="#333" hollow-target="textNormalTran"><g opacity="0.55"><g><rect fill="#333" fill-opacity="0" stroke-width="2" x="0" y="0" width="112.5" height="134.61285343352517" class="image-rect"></rect> <svg x="0" y="0" width="112.5" height="134.61285343352517" filtersec="colorsb2371979664" class="image-svg-svg primary" style="overflow: visible;"><svg viewBox="87.65764617919922 15.330742835998535 833.9266967773438 997.8441162109375" xmlns="http://www.w3.org/2000/svg" p-id="7401" data-spm-anchor-id="a313x.search_index.0.i83.11e63a81XK1Fsu"><path d="M522.926519 478.6176l307.141486-105.735314 20.011885 58.075428-307.170743 105.735315z" fill="#e0e3e5" p-id="7402" data-spm-anchor-id="a313x.search_index.0.i86.11e63a81XK1Fsu"></path><path d="M889.518519 384.380343l-45.2608 232.594286-60.328229-11.702858 45.231543-232.623542z" fill="#e0e3e5" p-id="7403" data-spm-anchor-id="a313x.search_index.0.i87.11e63a81XK1Fsu"></path><path d="M101.360347 1013.174857h52.458058v-52.106971l-27.384686-23.727543-25.073372 23.698286z" fill="#ffffff" p-id="7404"></path><path d="M223.860005 960.512H276.288805v-52.106971l-26.243658-23.727543-26.2144 23.698285z" fill="#e0e3e5" p-id="7405" data-spm-anchor-id="a313x.search_index.0.i85.11e63a81XK1Fsu"></path><path d="M683.928576 125.805714L603.383662 161.060571l-30.193372 208.398629H518.537947c-75.922286 34.143086-153.775543 73.757257-219.077485 96.928914l-67.291429 247.222857 341.021257-84.436114a186.368 186.368 0 0 0 61.205943-17.437257 188.591543 188.591543 0 0 0 52.458057-37.4784c32.329143-32.826514 52.458057-77.385143 52.458057-126.420114V276.860343C716.579547 210.300343 683.928576 125.805714 683.928576 125.805714z" fill="#8cd4fa" p-id="7406" data-spm-anchor-id="a313x.search_index.0.i75.11e63a81XK1Fsu"></path><path d="M223.860005 793.278171v115.126858H276.288805v-106.203429c83.295086 0 151.464229-64.277943 156.993828-145.6128l-210.066286-58.748343c0 71.797029 0.585143 142.394514 0.585143 195.437714z" fill="#e0e3e5" p-id="7407" data-spm-anchor-id="a313x.search_index.0.i84.11e63a81XK1Fsu"></path><path d="M657.041262 620.690286c6.290286-3.6864 12.405029-7.548343 18.432-11.615086 85.840457-58.250971 80.457143-170.861714 80.457143-201.698743 0-30.837029-13.458286-80.6912-22.879086-111.177143a469.138286 469.138286 0 0 0-9.654857-26.887314l-546.523429 330.020571c5.266286 6.261029 9.333029 10.883657 12.0832 13.897143 10.883657 11.790629 45.904457 45.2608 105.033143 100.381257 219.136-48.566857 340.1728-79.579429 363.081143-92.920685z" fill="#8cd4fa" p-id="7408" data-spm-anchor-id="a313x.search_index.0.i74.11e63a81XK1Fsu"></path><path d="M739.312347 108.982857l-54.213485 52.662857 54.213485 55.881143a55.296 55.296 0 0 0 47.981715-27.882057l39.438628-14.774857V108.982857h-87.420343z" fill="#e0e3e5" p-id="7409" data-spm-anchor-id="a313x.search_index.0.i88.11e63a81XK1Fsu"></path><path d="M669.358519 149.006629v232.477257c38.473143 0 69.924571-36.278857 69.924571-80.603429v-151.844571h-69.924571z" fill="#f5f6f7" p-id="7410" data-spm-anchor-id="a313x.search_index.0.i94.11e63a81XK1Fsu"></path><path d="M687.000576 108.982857l24.839314 29.813029-24.839314 27.267657h-103.862857c-71.621486 0-129.872457-64.014629-129.872457-142.657829h51.960685c0 47.191771 34.933029 85.577143 77.911772 85.577143h103.862857z" fill="#e0e3e5" p-id="7411" data-spm-anchor-id="a313x.search_index.0.i91.11e63a81XK1Fsu"></path><path d="M153.818405 527.477029v-34.728229l-25.044115-27.209143-27.413943 27.209143v47.981714c0 28.613486 23.610514 52.077714 52.458058 52.077715v211.968H101.360347v156.291657h52.458058v-79.872c18.432 0 36.074057-3.159771 52.458057-8.923429 57.929143-20.333714 100.234971-73.3184 104.565028-136.689371 0.234057-3.510857 0.380343-7.109486 0.380343-10.708115v-232.126171l-157.403428 34.728229z" fill="#f5f6f7" p-id="7412" data-spm-anchor-id="a313x.search_index.0.i93.11e63a81XK1Fsu"></path><path d="M153.818405 449.418971c-28.847543 0-52.458057 23.434971-52.458058 52.077715h52.458058v-52.077715z" fill="#e0e3e5" p-id="7413" data-spm-anchor-id="a313x.search_index.0.i90.11e63a81XK1Fsu"></path><path d="M669.358519 108.982857h69.953828v60.884114h-69.953828z" fill="#8cd4fa" p-id="7414" data-spm-anchor-id="a313x.search_index.0.i76.11e63a81XK1Fsu"></path><path d="M477.431662 605.622857l192.160914-153.892571L255.691776 84.465371c-113.576229-8.923429-117.262629 129.492114-90.5216 210.358858 26.711771 80.837486 193.389714 273.963886 312.261486 310.740114z" fill="#8cd4fa" p-id="7415" data-spm-anchor-id="a313x.search_index.0.i73.11e63a81XK1Fsu"></path><path d="M131.670747 358.897371c43.885714 79.901257 119.778743 159.246629 223.787886 226.391772 0 0 76.214857 25.365943 90.638629 13.165714 13.165714-11.0592-35.371886-59.743086-35.371886-59.743086-214.659657-138.591086-281.921829-339.675429-149.884343-450.998857L175.995319 15.330743C151.243776 36.220343 127.252919 71.8848 113.61909 97.338514c-40.696686 75.951543-32.709486 169.106286 18.080915 261.558857z" fill="#e0e3e5" p-id="7416" data-spm-anchor-id="a313x.search_index.0.i89.11e63a81XK1Fsu"></path><path d="M347.29589 596.143543c73.084343 58.806857 179.521829 48.596114 237.714286-22.762057a162.786743 162.786743 0 0 0 33.967543-73.055086 168.842971 168.842971 0 0 0-60.913372-162.6112l-210.768457 258.428343z" fill="#f5f6f7" p-id="7417" data-spm-anchor-id="a313x.search_index.0.i82.11e63a81XK1Fsu"></path><path d="M646.742747 538.185143l217.848686-26.741029 7.489829 60.971886-217.848686 26.741029z" fill="#8cd4fa" p-id="7418" data-spm-anchor-id="a313x.search_index.0.i78.11e63a81XK1Fsu"></path><path d="M921.584347 534.381714l-88.795428 219.721143-56.992914-22.996114 88.795428-219.721143z" fill="#8cd4fa" p-id="7419" data-spm-anchor-id="a313x.search_index.0.i77.11e63a81XK1Fsu"></path></svg></svg> <!----></g></g> <g transform="translate(11.65469741821289,38.2683219909668)"><g data-gra="path-name" fill-rule="" class="tp-name" transform="translate(0,0)"><g transform="scale(0.8600000000000001)"><g><path d="M9.35 3.06L9.35 3.06 8.81 0.16 9.56-1.07Q11.92-1.72 14.18-2.42 16.44-3.12 18.8-3.44L18.8-3.44 18.8-3.81 17.89-5 17.51-5Q16.44-3.65 14.82-3.65L14.82-3.65 13.91-4.3 13.91-6.23 14.23-6.93 14.61-6.93 14.61-7.25 15.36-7.57Q16.27-8.81 16.44-10.15L16.44-10.15 18.21-10.15 18.42-9.67 18.96-9.51 19.34-7.79 21.65-6.39 21.65-5.85 21.16-4.03 22.24-4.03 23.31-4.3 23.31-5.16 23.15-7.09Q23.69-8.65 23.69-10.37L23.69-10.37 22.77-12.08 21.48-12.41 18.42-11.55Q17.89-10.69 16.81-10.85L16.81-10.85 16.81-11.23 16.27-11.39 15.9-13.8 16.27-14.99Q19.87-16.38 23.85-16.7L23.85-16.7 23.85-17.24 22.93-17.4Q22.4-19.87 22.02-22.4L22.02-22.4 22.77-23.79Q24.44-24.28 26.37-24.12L26.37-24.12Q27.66-24.01 28.74-23.1L28.74-23.1 28.95-21.38 27.12-18.42 26.37-18.26 26.21-17.78 24.22-17.24 24.22-16.92 28.04-16.92 28.57-17.08Q32.01-17.4 34.38-15.36L34.38-15.36 34.59-14.02 33.68-13.11 32.17-13.11Q30.56-13.8 28.57-13.64L28.57-13.64 27.5-13.43 27.12-8.11 27.29-7.25 27.12-6.39 27.29-5.69 27.12-4.89 30.02-4.67 31.8-5 34.38-4.67 34.59-5.16 33.09-6.23 32.55-7.41 32.01-7.41 29.7-6.71 27.82-7.25 27.66-8.11Q29.11-10.53 31.26-12.57L31.26-12.57 32.39-12.57Q33.3-12.08 32.92-11.06L32.92-11.06 33.46-9.88 36.15-8.81 36.36-8.27 36.74-8.27 37.06-5.53 36.9-4.51 39.48-4.3 40.5-4.51Q42.92-3.81 45.36-3.46 47.8-3.12 50.33-2.79L50.33-2.79 50.33-2.26 50.86-2.26 50.86-1.4Q50.11 0.48 49.2 2.2L49.2 2.2Q47.59 2.9 45.6 2.74L45.6 2.74Q41.09 1.56 36.44 0.08 31.8-1.4 26.75-1.56L26.75-1.56Q22.02-1.24 17.67-0.13 13.32 0.97 9.35 3.06ZM16.11-16.01L16.11-16.01 15.15-16.54Q14.07-19.01 13.91-21.91L13.91-21.91 14.07-22.4 14.45-22.4 14.45-22.77 14.82-22.77 14.99-23.26 18.96-23.63 20.09-23.1 20.63-21.54Q20.63-19.66 19.5-18.1L19.5-18.1 18.42-17.56Q17.51-16.38 16.11-16.01ZM31.47-18.26L31.26-17.78Q30.24-19.87 29.86-22.08L29.86-22.08 30.72-23.79 35.07-24.12 37.65-22.93 37.81-21.54 36.74-19.28Q35.61-18.64 34.21-18.64L34.21-18.64 33.09-18.8 31.47-18.26ZM16.11-19.12L16.65-19.12 16.65-19.87 17.67-20.73 17.67-21.38 15.9-21.38 15.9-19.98 16.11-19.12ZM24.22-19.87L25.35-19.66 25.35-19.98 26.21-20.52 26.37-21 25.51-21.38 24.44-21 24.22-19.87ZM32.92-20.14L33.84-20.52 35.23-20.84 35.45-21.91 33.09-22.08 32.01-21.7 31.8-20.84 32.17-20.14 32.92-20.14ZM13.16-24.87L13.16-24.87 12.78-26.21 12.94-26.53 13.32-26.53 13.32-27.07Q16.11-29.11 20.09-28.41L20.09-28.41 20.41-27.39 20.09-27.39 19.5-26.53Q16.44-25.35 13.16-24.87ZM24.76-25.14L24.06-24.98Q22.77-26.53 22.77-28.63L22.77-28.63Q23.31-30.51 23.15-32.76L23.15-32.76 22.77-33.62 21.86-33.95Q19.17-33.62 16.44-33.01 13.7-32.39 11.17-31.53L11.17-31.53Q10.85-28.79 9.35-26.53L9.35-26.53 8.06-25.83Q6.66-29.27 5.59-33.09L5.59-33.09 7.2-33.95 7.41-34.48 8.06-34.48 8.06-34.86 8.43-34.86 9.18-34.64Q12.08-35.83 15.33-36.36 18.58-36.9 21.86-37.38L21.86-37.38 21.86-39.85 20.41-39.85 20.41-39.48 19.87-39.48 19.87-39.1 19.5-39.1 19.5-38.78 18.96-38.78 16.81-39.26 16.44-40.82Q16.65-42.22 17.51-43.4L17.51-43.4Q19.87-43.94 22.42-44.2 24.98-44.47 27.5-44.26L27.5-44.26Q30.4-44.1 32.76-42.92L32.76-42.92 32.92-41.57 33.09-41.57 33.09-41.2 32.01-39.96 29.33-39.85 26.91-39.96 26.91-38.62 30.56-37.92 30.56-37.54Q35.45-37.76 39.8-36.63 44.15-35.5 48.66-34.86L48.66-34.86Q50.11-32.92 49.95-30.13L49.95-30.13Q49.58-28.41 48.55-26.91L48.55-26.91 47.96-26.69 47.96-26.37 46.89-26.21 46.89-26.53 46.14-26.69 45.76-27.77 45.39-27.77Q44.47-29.27 44.15-30.99L44.15-30.99 44.69-32.39 44.47-32.92 43.45-32.92 42.92-32.76Q39.26-33.41 35.72-33.95 32.17-34.48 28.2-34.27L28.2-34.27 26.91-33.95Q25.89-32.55 26-30.72L26-30.72 26.21-28.41 25.89-26.21 24.76-25.14ZM29.86-25.83L29.86-25.83 26.75-26.53 26.75-27.07 27.5-28.09Q29.49-28.95 31.8-29.27L31.8-29.27Q34.97-28.79 38.03-27.93L38.03-27.93 38.19-27.23 37.65-26.53 36.15-26Q34.59-26.53 32.76-26.37L32.76-26.37Q31.26-25.83 29.86-25.83ZM13.16-28.25L13.16-28.25 12.78-29.65 13.7-31.37Q16.11-32.23 18.8-32.07L18.8-32.07 19.87-31.53 19.87-30.99 19.71-30.51Q16.44-29.27 13.16-28.25ZM28.57-29.49L28.57-29.49 27.82-30.51 28.57-32.07Q29.86-33.09 31.47-32.92L31.47-32.92 36.52-32.07 36.74-31.37 36.15-30.72 35.07-30.72 34-30.83Q31.47-29.86 28.57-29.49ZM97.49 1.18L97.49 1.18 97.49 0.54 95.5 0.16 95.12-2.79 95.28-3.65 95.12-4.67 95.87-4.89 96.89-4.67 97.92-5.1 97.92-5.59 99.31-6.39 99.47-7.04 100.87-8.49 100.87-9.29 101.14-9.29Q102.1-12.68 103.1-16.25 104.09-19.82 104.74-23.42L104.74-23.42 104.25-23.85 104.74-26.1 103.88-29.49 103.07-29.49 103.07-29.06 103.29-29.06 103.07-29.06 102.7-29.27 102.7-29.92 98.72-30.35Q93.67-29.7 89.27-28.04L89.27-28.04Q88.68-28.9 87.44-28.68L87.44-28.68 86.1-28.04 86.1-28.25 86.26-28.25 86.26-28.68 85.08-29.06 85.08-29.7 84.7-29.7 84.49-32.23 85.29-33.89 89.48-37.28Q90.45-38.51 90.45-40.23L90.45-40.23 90.07-41.3 93.08-42.11 95.12-40.23 95.12-38.13 93.67-34.54 96.09-34.54 97.7-34.75 98.29-34.54 99.47-34.75Q104.9-34.75 109.09-31.64L109.09-31.64 109.3-30.94 108.71-29.06 108.93-28.04Q108.33-23.2 106.29-19.23L106.29-19.23 106.51-18.1Q105.7-14.39 104.98-10.5 104.25-6.61 102.32-3.44L102.32-3.44 101.51-2.42 101.51-1.99 100.65-1.56 99.9-0.05 100.06-0.05 100.06 0.16Q98.88 1.18 97.49 1.18ZM66.06 0.97L66.06 0.97 62.84-3.44Q61.88-6.82 61.88-10.58L61.88-10.58Q62.09-11.87 63.43-12.25L63.43-12.25Q68.11-12.68 72.46-14.18L72.46-14.18 73.26-13.11Q75.89-13.11 78.31-11.87L78.31-11.87 78.69-11.01 79.65-9.99 79.65-8.49 76.27-0.48Q75.3 0.38 73.85 0.16L73.85 0.16 73.26-0.7 71.87-0.91Q68.86-0.27 66.06 0.97ZM70.63-4.08L73.64-4.67 74.5-7.63Q73.48-9.29 72.08-9.78L72.08-9.78 65.69-8.86 65.69-5.59 66.28-4.46Q68.11-3.87 69.88-4.08L69.88-4.08 70.25-4.24 70.63-4.08ZM93.89-9.78L92.87-9.08Q89.7-9.78 86.1-9.51L86.1-9.51 85.88-11.44 86.1-12.89 85.29-20.03 85.67-21.48 86.1-21.48 86.69-22.56 88.52-23.85 88.89-23.63 89.11-24.06 93.08-24.28 95.5-23.85 96.3-22.34 97.06-22.13 97.06-21.7 97.7-21.7 97.92-20.68Q96.89-16.87 96.89-12.68L96.89-12.68 97.06-11.87 94.69-9.78 93.89-9.78ZM92.87-11.87L93.08-12.03 93.3-12.25Q92.49-12.89 92.71-14.18L92.71-14.18 93.08-14.18 93.08-14.61 93.46-14.61 93.46-15.2 93.3-15.63 92.71-15.63 89.11-15.2 89.11-13.7 89.27-12.03 92.87-11.87ZM64.02-14.82L64.02-14.82Q62.84-15.42 62.47-16.65L62.47-16.65 62.84-17.94 63.86-18.1 64.02-18.8Q68.7-19.82 73.26-20.46L73.26-20.46 73.48-19.82 77.24-18.37 77.24-17.51 76.05-15.63 72.08-15.42 69.29-15.63Q66.87-14.82 64.02-14.82ZM91.9-17.29L93.3-17.51 93.3-18.58 92.11-19.82 91.09-19.82Q89.48-19.82 88.68-18.37L88.68-18.37 88.89-17.51 91.9-17.29ZM62.47-20.68L62.47-20.68 61.07-21.11 61.07-21.7 61.88-23.63 72.29-26.1Q75.3-25.3 78.47-24.28L78.47-24.28 78.47-23.42 78.1-22.56 77.72-22.56 77.72-21.91Q73.64-21.91 69.85-21.59 66.06-21.27 62.47-20.68ZM56.83-24.65L56.83-24.65 55.86-26.75 56.45-29.7Q60.64-30.94 65.15-31.9 69.66-32.87 74.71-32.87L74.71-32.87Q78.69-32.87 82.29-31.42L82.29-31.42 82.66-28.47Q79.87-27.45 76.48-27.61L76.48-27.61Q73.48-28.25 69.88-28.04L69.88-28.04 67.46-27.61 66.87-27.82Q64.29-27.02 61.77-26.37 59.24-25.73 56.83-24.65ZM70.25-34.75L65.85-34.32 64.29-35.83 64.29-36.85 65.26-39.37Q69.88-40.01 74.07-41.3L74.07-41.3 74.28-40.23 77.88-39.16 78.1-37.71 76.65-35.34 71.49-34.54 70.25-34.75Z" transform="translate(-5.590000152587891, 44.35187530517578)"></path></g> <!----> <!----> <!----> <!----> <!----> <!----> <!----></g></g> <g data-gra="path-slogan" fill-rule="" class="tp-slogan" fill="#333" transform="translate(-8.034698486328125,46.77421569824219)"><!----> <!----> <g transform="scale(1, 1)"><g transform="scale(1)"><path d="M11.17-4.87L11.17-3.40L8.80-3.40L8.80 1.07L7.28 1.07L7.28-3.40L4.62-3.40Q4.56-2.57 4.40-1.92Q4.24-1.27 3.94-0.71Q3.64-0.16 3.17 0.37Q2.71 0.90 2.04 1.51L2.04 1.51L0.86 0.38Q1.48-0.11 1.88-0.53Q2.29-0.96 2.54-1.39Q2.80-1.82 2.93-2.30Q3.06-2.78 3.11-3.40L3.11-3.40L0.60-3.40L0.60-4.87L3.16-4.87L3.16-7.57L1.24-7.57L1.24-9.04L10.51-9.04L10.51-7.57L8.80-7.57L8.80-4.87L11.17-4.87ZM4.67-4.87L7.28-4.87L7.28-7.57L4.67-7.57L4.67-4.87ZM22.49-4.66L15.17-4.66Q15.14-4.16 15.10-3.73L15.10-3.73L22.13-3.73L22.13 1.08L14.99 1.08L14.99-3.06Q14.88-2.54 14.72-2.07Q14.57-1.60 14.35-1.12Q14.14-0.65 13.86-0.17Q13.58 0.31 13.25 0.85L13.25 0.85L11.86 0.06Q12.30-0.53 12.64-1.12Q12.98-1.72 13.21-2.38Q13.44-3.05 13.55-3.83Q13.67-4.61 13.67-5.58L13.67-5.58L13.67-8.59L17.40-8.59L17.15-9.65L18.79-9.72L19.02-8.59L22.49-8.59L22.49-4.66ZM20.98-7.24L15.18-7.24L15.18-6.05L20.98-6.05L20.98-7.24ZM16.51-2.36L16.51-0.26L20.58-0.26L20.58-2.36L16.51-2.36ZM29.96-4.96L29.29-3.91L33.38-3.91L33.38 1.00L25.66 1.00L25.66-3.53L24.92-3.19L24.18-4.46Q25.00-4.78 25.55-5.11Q26.10-5.44 26.41-5.89L26.41-5.89L24.53-5.89L24.53-7.03L25.10-7.03L24.43-7.54Q24.89-8.08 25.22-8.68Q25.56-9.29 25.74-9.78L25.74-9.78L27.02-9.55Q26.96-9.40 26.90-9.23Q26.83-9.06 26.76-8.88L26.76-8.88L29.65-8.88L29.65-7.73L28.14-7.73Q28.14-7.56 28.13-7.42Q28.13-7.27 28.13-7.18L28.13-7.18L28.13-7.03L29.83-7.03L29.83-5.89L28.22-5.89Q28.68-5.65 29.15-5.41Q29.62-5.16 29.96-4.96L29.96-4.96ZM30.16-8.94L34.39-8.94L34.39-4.46L30.16-4.46L30.16-8.94ZM25.70-7.03L26.78-7.03L26.78-7.12Q26.80-7.24 26.80-7.40Q26.80-7.56 26.80-7.73L26.80-7.73L26.16-7.73Q26.05-7.55 25.94-7.37Q25.82-7.20 25.70-7.03L25.70-7.03ZM33.08-5.75L33.08-7.70L31.49-7.70L31.49-5.75L33.08-5.75ZM27.55-4.92L27.55-4.92Q27.16-4.38 26.38-3.91L26.38-3.91L29.11-3.91Q28.78-4.15 28.36-4.42Q27.94-4.68 27.55-4.92ZM31.88-2.05L31.88-2.75L27.17-2.75L27.17-2.05L31.88-2.05ZM27.17-0.20L31.88-0.20L31.88-0.90L27.17-0.90L27.17-0.20ZM42.92-4.36L42.92-4.36Q42.37-4.38 42.10-4.67Q41.82-4.97 41.82-5.66L41.82-5.66L41.82-6.40L41.03-5.65L41.34-5.65L41.34-0.19Q41.34 0.18 41.27 0.43Q41.21 0.68 41.06 0.83Q40.91 0.98 40.65 1.06Q40.39 1.14 40.00 1.18L40.00 1.18L39.44 1.22L39.06-0.11L39.68-0.17Q39.89-0.19 39.95-0.29Q40.01-0.38 40.01-0.72L40.01-0.72L40.01-1.08L38.05-1.08L38.05 1.19L36.72 1.19L36.72-5.65L40.92-5.65L40.58-6.19Q40.31-6.18 39.94-6.16Q39.56-6.14 39.17-6.12Q38.77-6.10 38.38-6.07Q37.99-6.05 37.68-6.02L37.68-6.02Q37.39-6 37.15-5.97Q36.90-5.94 36.70-5.89L36.70-5.89L36.36-7.28Q36.53-7.32 36.61-7.40Q36.68-7.49 36.78-7.55L36.78-7.55Q36.89-7.64 37.09-7.88Q37.28-8.12 37.50-8.43Q37.72-8.74 37.93-9.08Q38.15-9.42 38.29-9.73L38.29-9.73L39.62-9.10Q39.47-8.83 39.28-8.55Q39.10-8.27 38.92-8.02Q38.74-7.76 38.57-7.57Q38.41-7.38 38.29-7.30L38.29-7.30Q38.62-7.32 39-7.34Q39.38-7.36 39.77-7.38L39.77-7.38Q39.61-7.58 39.48-7.75Q39.35-7.91 39.24-8.04L39.24-8.04L40.25-8.83Q40.42-8.65 40.62-8.41Q40.82-8.16 41.03-7.89Q41.24-7.62 41.45-7.35Q41.65-7.08 41.82-6.83L41.82-6.83L41.82-9.47L43.19-9.40L43.19-7.98Q43.50-8.11 43.84-8.26Q44.17-8.41 44.48-8.57Q44.78-8.72 45.05-8.87Q45.31-9.01 45.49-9.14L45.49-9.14L46.12-7.86Q45.88-7.72 45.53-7.54Q45.18-7.37 44.78-7.19Q44.38-7.01 43.96-6.83Q43.55-6.66 43.19-6.52L43.19-6.52L43.19-6.13Q43.19-5.84 43.27-5.78Q43.36-5.71 43.62-5.69L43.62-5.69Q44.08-5.65 44.56-5.69L44.56-5.69Q44.92-5.71 45.04-5.79Q45.17-5.87 45.23-6.14L45.23-6.14Q45.26-6.30 45.28-6.43Q45.30-6.55 45.32-6.76L45.32-6.76L46.63-6.29Q46.61-6.10 46.58-5.95Q46.56-5.80 46.51-5.57L46.51-5.57Q46.44-5.22 46.33-4.99Q46.22-4.76 46.05-4.63Q45.88-4.50 45.62-4.43Q45.36-4.37 45-4.36L45-4.36Q43.96-4.31 42.92-4.36ZM40.00-4.46L38.05-4.46L38.05-3.95L40.00-3.95L40.00-4.46ZM45.40-1.72L46.70-1.24Q46.69-1.07 46.65-0.79Q46.61-0.50 46.57-0.28L46.57-0.28Q46.50 0.07 46.39 0.29Q46.27 0.52 46.08 0.66Q45.89 0.80 45.62 0.87Q45.35 0.94 44.96 0.96L44.96 0.96Q43.97 1.02 42.98 0.96L42.98 0.96Q42.41 0.94 42.12 0.63Q41.83 0.32 41.83-0.36L41.83-0.36L41.83-4.12L43.19-4.04L43.19-2.81Q43.51-2.95 43.85-3.11Q44.18-3.28 44.50-3.44Q44.81-3.61 45.09-3.77Q45.37-3.94 45.58-4.08L45.58-4.08L46.26-2.93Q45.98-2.75 45.61-2.55Q45.24-2.35 44.83-2.16Q44.41-1.97 43.99-1.78Q43.56-1.60 43.19-1.45L43.19-1.45L43.19-0.83Q43.19-0.54 43.31-0.46Q43.43-0.37 43.70-0.35L43.70-0.35Q44.11-0.31 44.53-0.35L44.53-0.35Q44.72-0.36 44.86-0.39Q44.99-0.42 45.07-0.48Q45.16-0.54 45.20-0.64Q45.25-0.74 45.29-0.91L45.29-0.91Q45.31-1.04 45.34-1.25Q45.37-1.46 45.40-1.72L45.40-1.72ZM38.05-2.27L40.01-2.27L40.00-2.80L38.05-2.80L38.05-2.27ZM48.70-8.77L49.73-9.71Q50.18-9.25 50.63-8.76Q51.07-8.27 51.34-7.84L51.34-7.84L50.24-6.79Q49.93-7.31 49.51-7.84Q49.08-8.36 48.70-8.77L48.70-8.77ZM57.97-9.02L57.97-0.61Q57.97-0.11 57.88 0.22Q57.79 0.55 57.58 0.75Q57.36 0.95 57.01 1.04Q56.66 1.13 56.15 1.18L56.15 1.18L55.34 1.25L54.88-0.22L55.68-0.29Q55.93-0.31 56.08-0.35Q56.23-0.38 56.31-0.47Q56.39-0.55 56.42-0.68Q56.45-0.80 56.45-1.01L56.45-1.01L56.45-7.49L51.58-7.49L51.58-9.02L57.97-9.02ZM49.84-7.10L49.84 1.20L48.30 1.20L48.30-7.15L49.84-7.10ZM55.55-6.34L55.55-1.24L50.71-1.24L50.71-6.34L55.55-6.34ZM52.18-2.65L54.07-2.65L54.07-4.97L52.18-4.97L52.18-2.65ZM62.02-7.45L61.94-7.45Q61.66-6.98 61.34-6.54Q61.03-6.10 60.72-5.75L60.72-5.75L59.46-6.55Q59.76-6.89 60.07-7.31Q60.38-7.73 60.67-8.17Q60.95-8.60 61.18-9.02Q61.40-9.44 61.55-9.79L61.55-9.79L63.04-9.52Q62.96-9.35 62.88-9.17Q62.80-8.99 62.70-8.80L62.70-8.80L64.96-8.80L64.96-7.88Q65.23-8.38 65.44-8.85Q65.64-9.32 65.81-9.79L65.81-9.79L67.31-9.56Q67.24-9.37 67.16-9.18Q67.09-8.99 67.01-8.80L67.01-8.80L69.95-8.80L69.95-7.45L68.26-7.45L68.84-6.59L67.61-5.92Q67.51-6.08 67.40-6.29Q67.30-6.50 67.18-6.71Q67.06-6.92 66.94-7.12Q66.82-7.31 66.72-7.45L66.72-7.45L66.40-7.45Q66.19-7.06 65.94-6.67L65.94-6.67L64.54-7.19Q64.62-7.31 64.70-7.45L64.70-7.45L63.50-7.45L63.96-6.68L62.75-6.10Q62.58-6.44 62.38-6.82Q62.18-7.20 62.02-7.45L62.02-7.45ZM64.27-6.76L65.46-6.76Q66.34-5.92 67.52-5.31Q68.71-4.70 70.31-4.22L70.31-4.22L69.72-2.88Q68.57-3.29 67.50-3.83L67.50-3.83L67.50-3.12L62.22-3.12L62.22-3.80Q61.70-3.55 61.15-3.32Q60.60-3.08 60.02-2.88L60.02-2.88L59.41-4.19Q60.96-4.67 62.18-5.32Q63.41-5.96 64.27-6.76L64.27-6.76ZM63.29-4.37L66.48-4.37Q65.98-4.66 65.57-4.94Q65.17-5.22 64.90-5.48L64.90-5.48Q64.62-5.22 64.21-4.94Q63.79-4.66 63.29-4.37L63.29-4.37ZM61.03 1.00L61.03-2.56L68.72-2.56L68.72 1.00L61.03 1.00ZM62.54-1.28L62.54-0.28L67.21-0.28L67.21-1.28L62.54-1.28ZM81.96-5.84L81.96-4.43L80.93-4.43L80.93 1.13L79.52 1.13L79.52-4.43L78.61-4.43Q78.61-3.38 78.55-2.60Q78.48-1.82 78.32-1.16Q78.17-0.50 77.92 0.09Q77.66 0.68 77.27 1.36L77.27 1.36L75.92 0.66Q76.21 0.24 76.42-0.13Q76.62-0.49 76.78-0.86L76.78-0.86L75.94-0.28Q75.73-0.65 75.53-0.98Q75.32-1.31 75.14-1.56L75.14-1.56L75.14-0.16Q75.14 0.19 75.12 0.43Q75.10 0.66 74.98 0.82Q74.87 0.97 74.62 1.06Q74.36 1.15 73.91 1.20L73.91 1.20L73.27 1.26L72.89-0.10L73.33-0.14Q73.49-0.16 73.57-0.19Q73.66-0.23 73.70-0.31Q73.75-0.38 73.76-0.52Q73.78-0.66 73.78-0.89L73.78-0.89L73.78-2.53L71.80-2.53L71.80-3.86L73.78-3.86L73.78-4.64L71.62-4.64L71.62-5.96L72.78-5.96L72.50-7.33L71.94-7.33L71.94-8.58L73.78-8.58L73.57-9.55L75.07-9.64L75.25-8.58L76.92-8.58L76.92-7.33L76.45-7.33L76.16-5.96L77.03-5.96L77.03-4.64L75.14-4.64L75.14-3.86L76.96-3.86L76.96-2.53L75.14-2.53L75.14-1.96L76.00-2.48Q76.18-2.23 76.42-1.88Q76.67-1.52 76.87-1.15L76.87-1.15Q76.99-1.50 77.06-1.88Q77.14-2.27 77.18-2.72Q77.22-3.17 77.23-3.70Q77.24-4.22 77.24-4.87L77.24-4.87L77.24-8.65Q77.77-8.70 78.32-8.78Q78.88-8.87 79.40-8.98Q79.92-9.08 80.39-9.22Q80.87-9.35 81.26-9.49L81.26-9.49L81.72-8.09Q81.42-7.97 81.05-7.85Q80.68-7.74 80.27-7.64Q79.86-7.55 79.43-7.46Q79.01-7.38 78.61-7.33L78.61-7.33L78.61-5.84L81.96-5.84ZM73.81-7.33L74.06-5.96L74.87-5.96L75.16-7.33L73.81-7.33ZM72.42-2.51L73.58-1.97Q73.55-1.84 73.39-1.49Q73.24-1.15 73.03-0.74Q72.83-0.34 72.60 0.05Q72.37 0.43 72.19 0.64L72.19 0.64L71.06-0.01Q71.24-0.25 71.44-0.56Q71.64-0.88 71.82-1.21Q72-1.54 72.16-1.88Q72.31-2.22 72.42-2.51L72.42-2.51ZM86.12-6.41L86.12-6.41Q86.33-6.76 86.53-7.10Q86.72-7.44 86.88-7.74L86.88-7.74L88.04-7.01Q87.79-6.52 87.48-5.98Q87.17-5.45 86.85-4.96Q86.53-4.48 86.24-4.09Q85.94-3.70 85.72-3.48L85.72-3.48Q85.91-3.52 86.14-3.55Q86.38-3.59 86.61-3.62Q86.84-3.66 87.06-3.70Q87.28-3.73 87.46-3.77L87.46-3.77L87.47-2.38Q87.37-2.38 87.03-2.33Q86.69-2.28 86.25-2.21Q85.81-2.15 85.36-2.08Q84.91-2.00 84.60-1.94L84.60-1.94Q84.41-1.91 84.25-1.88Q84.08-1.85 83.98-1.81L83.98-1.81L83.62-3.31Q83.89-3.37 84.07-3.49Q84.25-3.60 84.42-3.80L84.42-3.80Q84.58-4.01 84.80-4.34Q85.02-4.67 85.28-5.06L85.28-5.06Q84.98-5.04 84.70-5.02Q84.41-4.99 84.19-4.97L84.19-4.97Q84.05-4.94 83.93-4.93Q83.81-4.92 83.68-4.90L83.68-4.90L83.36-6.30Q83.53-6.36 83.65-6.47Q83.76-6.59 83.86-6.68L83.86-6.68Q83.98-6.83 84.17-7.13Q84.37-7.44 84.60-7.84Q84.83-8.23 85.07-8.70Q85.31-9.17 85.51-9.64L85.51-9.64L86.71-9.06Q86.52-8.68 86.29-8.26Q86.06-7.85 85.84-7.47Q85.61-7.09 85.40-6.79Q85.20-6.49 85.08-6.35L85.08-6.35Q85.30-6.36 85.57-6.37Q85.85-6.38 86.12-6.41ZM92.48-2.23L93.94-1.73Q93.91-1.42 93.89-1.18Q93.86-0.94 93.80-0.64L93.80-0.64Q93.71-0.11 93.58 0.21Q93.46 0.53 93.24 0.71Q93.02 0.89 92.70 0.96Q92.38 1.03 91.90 1.06L91.90 1.06Q90.90 1.12 89.92 1.06L89.92 1.06Q89.39 1.03 89.04 0.96Q88.69 0.89 88.48 0.70Q88.27 0.50 88.18 0.17Q88.09-0.17 88.09-0.72L88.09-0.72L88.09-5.47L91.67-5.47L91.67-7.54L88.09-7.54L88.09-9.10L93.17-9.10L93.17-3.94L89.57-3.94L89.57-1.26Q89.57-1.02 89.59-0.87Q89.62-0.72 89.69-0.63Q89.77-0.54 89.91-0.50Q90.05-0.46 90.26-0.43L90.26-0.43Q90.58-0.40 90.91-0.40Q91.25-0.41 91.56-0.43L91.56-0.43Q91.78-0.44 91.92-0.49Q92.06-0.53 92.16-0.61Q92.26-0.68 92.31-0.82Q92.36-0.96 92.39-1.18L92.39-1.18Q92.41-1.38 92.44-1.69Q92.47-1.99 92.48-2.23L92.48-2.23ZM87.74-1.55L87.78-0.77L87.83-0.01Q87.73-0.01 87.40 0.04Q87.07 0.10 86.62 0.17Q86.17 0.24 85.66 0.33Q85.15 0.42 84.71 0.50Q84.26 0.58 83.93 0.64Q83.60 0.70 83.51 0.72L83.51 0.72L83.29-0.82Q83.40-0.82 83.74-0.87Q84.08-0.92 84.54-1.00Q85.00-1.07 85.51-1.16Q86.03-1.25 86.48-1.33Q86.94-1.40 87.28-1.46Q87.62-1.52 87.74-1.55L87.74-1.55ZM104.33-9.08L104.33-7.57L96.42-7.57L96.42-9.08L104.33-9.08ZM104.38-2.34L105.86-1.88Q105.85-1.62 105.82-1.25Q105.79-0.88 105.74-0.58L105.74-0.58Q105.67-0.14 105.54 0.14Q105.41 0.42 105.17 0.59Q104.94 0.77 104.59 0.85Q104.23 0.94 103.72 0.97L103.72 0.97Q103.10 1.01 102.46 0.97L102.46 0.97Q102 0.95 101.67 0.85Q101.34 0.76 101.13 0.55Q100.92 0.34 100.82 0.01Q100.72-0.32 100.72-0.82L100.72-0.82L100.72-4.51L99.44-4.51Q99.44-4.25 99.44-4.01Q99.43-3.77 99.43-3.62L99.43-3.62Q99.41-2.70 99.18-1.95Q98.95-1.20 98.53-0.59Q98.10 0.02 97.46 0.52Q96.82 1.02 95.96 1.43L95.96 1.43L94.88 0.12Q95.76-0.28 96.32-0.67Q96.88-1.07 97.21-1.51Q97.54-1.96 97.67-2.47Q97.80-2.99 97.82-3.62L97.82-3.62Q97.82-3.76 97.83-4.00Q97.84-4.25 97.84-4.51L97.84-4.51L95.46-4.51L95.46-6.01L105.30-6.01L105.30-4.51L102.30-4.51L102.30-1.18Q102.30-0.98 102.32-0.87Q102.35-0.76 102.42-0.70Q102.49-0.64 102.61-0.61Q102.73-0.58 102.92-0.56L102.92-0.56Q103.19-0.54 103.43-0.56L103.43-0.56Q103.69-0.58 103.85-0.60Q104.00-0.62 104.09-0.69Q104.18-0.76 104.22-0.88Q104.26-1.01 104.29-1.22L104.29-1.22Q104.33-1.49 104.35-1.76Q104.36-2.03 104.38-2.34L104.38-2.34Z" transform="translate(-0.6, 9.792)"></path></g></g></g></g></g></g><defs v-gra="od"></defs></svg>